<svg xmlns="http://www.w3.org/2000/svg" width="24" height="24" viewBox="0 0 24 24" fill="none">
<path fill-rule="evenodd" clip-rule="evenodd" d="M3.20337 7.35669C3.26767 7.29222 3.34406 7.24108 3.42816 7.20618C3.51226 7.17128 3.60241 7.15332 3.69346 7.15332C3.78452 7.15332 3.87467 7.17128 3.95877 7.20618C4.04287 7.24108 4.11926 7.29222 4.18356 7.35669L12.0002 15.1747L19.8168 7.35669C19.8812 7.29233 19.9576 7.24127 20.0417 7.20644C20.1258 7.17161 20.2159 7.15368 20.3069 7.15368C20.3979 7.15368 20.488 7.17161 20.5721 7.20644C20.6562 7.24127 20.7326 7.29233 20.797 7.35669C20.8614 7.42105 20.9124 7.49745 20.9472 7.58155C20.9821 7.66564 21 7.75576 21 7.84678C21 7.9378 20.9821 8.02793 20.9472 8.11202C20.9124 8.19611 20.8614 8.27252 20.797 8.33688L12.4903 16.6436C12.426 16.7081 12.3496 16.7592 12.2655 16.7941C12.1814 16.829 12.0912 16.847 12.0002 16.847C11.9091 16.847 11.819 16.829 11.7349 16.7941C11.6508 16.7592 11.5744 16.7081 11.5101 16.6436L3.20337 8.33688C3.1389 8.27258 3.08776 8.19619 3.05286 8.11209C3.01796 8.02799 3 7.93784 3 7.84678C3 7.75573 3.01796 7.66557 3.05286 7.58148C3.08776 7.49738 3.1389 7.42099 3.20337 7.35669Z" fill="#333333"/>
</svg>