<svg width="24" height="24" viewBox="0 0 24 24" fill="none" xmlns="http://www.w3.org/2000/svg">
<g id="cross">
<g id="Vector">
<path fill-rule="evenodd" clip-rule="evenodd" d="M5.61396 5.61407C5.75461 5.47341 5.94538 5.3944 6.14429 5.3944C6.3432 5.3944 6.53397 5.47341 6.67462 5.61407L11.9779 10.9174L17.2812 5.61407C17.4219 5.47341 17.6126 5.3944 17.8116 5.3944C18.0105 5.3944 18.2012 5.47341 18.3419 5.61407C18.4825 5.75472 18.5616 5.94548 18.5616 6.1444C18.5616 6.34331 18.4825 6.53407 18.3419 6.67473L13.0386 11.978L18.3419 17.2813C18.4825 17.422 18.5616 17.6127 18.5616 17.8117C18.5616 18.0106 18.4825 18.2013 18.3419 18.342C18.2012 18.4826 18.0105 18.5617 17.8116 18.5617C17.6126 18.5617 17.4219 18.4826 17.2812 18.342L11.9779 13.0387L6.67462 18.342C6.53397 18.4826 6.3432 18.5617 6.14429 18.5617C5.94538 18.5617 5.75461 18.4826 5.61396 18.342C5.47331 18.2013 5.39429 18.0106 5.39429 17.8117C5.39429 17.6127 5.47331 17.422 5.61396 17.2813L10.9173 11.978L5.61396 6.67473C5.47331 6.53407 5.39429 6.34331 5.39429 6.1444C5.39429 5.94548 5.47331 5.75472 5.61396 5.61407Z" fill="#333333"/>
</g>
</g>
</svg>
