<svg width="24" height="24" viewBox="0 0 24 22" fill="none" xmlns="http://www.w3.org/2000/svg">
<rect width="24" height="24" fill="#F6F8F9"/>
<path d="M17.0625 3H9.1875C8.59076 3 8.01847 3.23705 7.59651 3.65901C7.17455 4.08097 6.9375 4.65326 6.9375 5.25C6.34076 5.25 5.76847 5.48705 5.34651 5.90901C4.92455 6.33097 4.6875 6.90326 4.6875 7.5V18.75C4.6875 19.3467 4.92455 19.919 5.34651 20.341C5.76847 20.7629 6.34076 21 6.9375 21H14.8125C15.4092 21 15.9815 20.7629 16.4035 20.341C16.8254 19.919 17.0625 19.3467 17.0625 18.75C17.6592 18.75 18.2315 18.5129 18.6535 18.091C19.0754 17.669 19.3125 17.0967 19.3125 16.5V5.25C19.3125 4.65326 19.0754 4.08097 18.6535 3.65901C18.2315 3.23705 17.6592 3 17.0625 3ZM17.0625 17.625V7.5C17.0625 6.90326 16.8254 6.33097 16.4035 5.90901C15.9815 5.48705 15.4092 5.25 14.8125 5.25H8.0625C8.0625 4.95163 8.18103 4.66548 8.392 4.4545C8.60298 4.24353 8.88913 4.125 9.1875 4.125H17.0625C17.3609 4.125 17.647 4.24353 17.858 4.4545C18.069 4.66548 18.1875 4.95163 18.1875 5.25V16.5C18.1875 16.7984 18.069 17.0845 17.858 17.2955C17.647 17.5065 17.3609 17.625 17.0625 17.625ZM5.8125 7.5C5.8125 7.20163 5.93103 6.91548 6.142 6.7045C6.35298 6.49353 6.63913 6.375 6.9375 6.375H14.8125C15.1109 6.375 15.397 6.49353 15.608 6.7045C15.819 6.91548 15.9375 7.20163 15.9375 7.5V18.75C15.9375 19.0484 15.819 19.3345 15.608 19.5455C15.397 19.7565 15.1109 19.875 14.8125 19.875H6.9375C6.63913 19.875 6.35298 19.7565 6.142 19.5455C5.93103 19.3345 5.8125 19.0484 5.8125 18.75V7.5Z" fill="#333333"/>
</svg>
