<svg width="32" height="32" viewBox="0 0 32 32" fill="none" xmlns="http://www.w3.org/2000/svg">
<g id="info-circle">
<g id="Vector">
<path d="M16 26.5C13.2152 26.5 10.5445 25.3938 8.57538 23.4246C6.60625 21.4555 5.5 18.7848 5.5 16C5.5 13.2152 6.60625 10.5445 8.57538 8.57538C10.5445 6.60625 13.2152 5.5 16 5.5C18.7848 5.5 21.4555 6.60625 23.4246 8.57538C25.3938 10.5445 26.5 13.2152 26.5 16C26.5 18.7848 25.3938 21.4555 23.4246 23.4246C21.4555 25.3938 18.7848 26.5 16 26.5ZM16 28C19.1826 28 22.2348 26.7357 24.4853 24.4853C26.7357 22.2348 28 19.1826 28 16C28 12.8174 26.7357 9.76516 24.4853 7.51472C22.2348 5.26428 19.1826 4 16 4C12.8174 4 9.76516 5.26428 7.51472 7.51472C5.26428 9.76516 4 12.8174 4 16C4 19.1826 5.26428 22.2348 7.51472 24.4853C9.76516 26.7357 12.8174 28 16 28Z" fill="#2E69FF"/>
<path d="M17.395 13.882L13.96 14.3125L13.837 14.8825L14.512 15.007C14.953 15.112 15.04 15.271 14.944 15.7105L13.837 20.9125C13.546 22.258 13.9945 22.891 15.049 22.891C15.8665 22.891 16.816 22.513 17.2465 21.994L17.3785 21.37C17.0785 21.634 16.6405 21.739 16.3495 21.739C15.937 21.739 15.787 21.4495 15.8935 20.9395L17.395 13.882ZM17.5 10.75C17.5 11.1478 17.342 11.5294 17.0607 11.8107C16.7794 12.092 16.3978 12.25 16 12.25C15.6022 12.25 15.2207 12.092 14.9393 11.8107C14.658 11.5294 14.5 11.1478 14.5 10.75C14.5 10.3522 14.658 9.97064 14.9393 9.68934C15.2207 9.40804 15.6022 9.25 16 9.25C16.3978 9.25 16.7794 9.40804 17.0607 9.68934C17.342 9.97064 17.5 10.3522 17.5 10.75Z" fill="#2E69FF"/>
</g>
</g>
</svg>
